<svg width="26" height="26" viewBox="0 0 26 26" fill="none" xmlns="http://www.w3.org/2000/svg">
<path opacity="0.3" d="M22.644 12.0843C21.7485 10.2589 20.3591 8.72109 18.6335 7.6456C16.908 6.57011 14.9155 6 12.8822 6C10.8489 6 8.8564 6.57011 7.13086 7.6456C5.40532 8.72109 4.0159 10.2589 3.12039 12.0843C3.04126 12.2391 3 12.4105 3 12.5844C3 12.7583 3.04126 12.9297 3.12039 13.0845C4.0159 14.91 5.40532 16.4477 7.13086 17.5232C8.8564 18.5987 10.8489 19.1688 12.8822 19.1688C14.9155 19.1688 16.908 18.5987 18.6335 17.5232C20.3591 16.4477 21.7485 14.91 22.644 13.0845C22.7203 12.9289 22.76 12.7578 22.76 12.5844C22.76 12.411 22.7203 12.24 22.644 12.0843ZM12.8884 17.524C11.9114 17.524 10.9564 17.2343 10.1441 16.6915C9.33178 16.1488 8.69867 15.3773 8.32481 14.4747C7.95094 13.5721 7.85311 12.5789 8.04371 11.6208C8.2343 10.6626 8.70476 9.78244 9.39557 9.09163C10.0864 8.40082 10.9665 7.93036 11.9247 7.73977C12.8829 7.54917 13.8761 7.64699 14.7787 8.02086C15.6812 8.39472 16.4527 9.02784 16.9955 9.84014C17.5382 10.6524 17.8279 11.6075 17.8279 12.5844C17.8295 13.2346 17.7028 13.8788 17.4549 14.4799C17.207 15.0811 16.8429 15.6273 16.3834 16.0874C15.9239 16.5475 15.378 16.9123 14.7772 17.1609C14.1764 17.4096 13.5324 17.5371 12.8822 17.5363L12.8884 17.524Z" fill="#0090FF"/>
<path d="M16.0618 13.4489C15.9499 13.8657 15.757 14.2563 15.4941 14.5986C15.2312 14.9408 14.9035 15.2279 14.5297 15.4435C14.1559 15.659 13.7433 15.7989 13.3154 15.855C12.8875 15.9111 12.4528 15.8824 12.036 15.7705C11.6193 15.6586 11.2286 15.4657 10.8864 15.2028C10.5442 14.94 10.2571 14.6123 10.0415 14.2384C9.8259 13.8646 9.68606 13.452 9.62995 13.0241C9.57384 12.5963 9.60255 12.1615 9.71444 11.7448C10.0311 11.9738 10.4191 12.0824 10.8087 12.051C11.1982 12.0197 11.5639 11.8504 11.8398 11.5737C12.1158 11.297 12.2841 10.9309 12.3144 10.5413C12.3447 10.1516 12.235 9.76393 12.0052 9.44786C12.8395 9.21152 13.7334 9.31533 14.4914 9.73654C15.2493 10.1578 15.8096 10.8621 16.0494 11.6954C16.2099 12.2752 16.2099 12.8876 16.0494 13.4674L16.0618 13.4489Z" fill="#0090FF"/>
</svg>
