<svg width="12" height="12" viewBox="0 0 12 12" fill="none" xmlns="http://www.w3.org/2000/svg">
<path d="M0.31394 9.4115C0.112922 9.61262 0 9.88533 0 10.1697C0 10.454 0.112922 10.7268 0.31394 10.9279L1.07213 11.6861C1.27325 11.8871 1.54596 12 1.83031 12C2.11467 12 2.38738 11.8871 2.5885 11.6861L6 8.27456L3.72544 6L0.31394 9.4115ZM11.6861 1.07213L10.9279 0.31394C10.7268 0.112922 10.454 0 10.1697 0C9.88533 0 9.61262 0.112922 9.4115 0.31394L6 3.72544L8.27456 6L11.6861 2.5885C11.8871 2.38738 12 2.11467 12 1.83031C12 1.54596 11.8871 1.27325 11.6861 1.07213Z" fill="#828891"/>
<path d="M11.6861 9.4115C11.8871 9.61262 12 9.88533 12 10.1697C12 10.454 11.8871 10.7268 11.6861 10.9279L10.9279 11.6861C10.7268 11.8871 10.454 12 10.1697 12C9.88533 12 9.61262 11.8871 9.4115 11.6861L0.31394 2.5885C0.112922 2.38738 0 2.11467 0 1.83031C0 1.54596 0.112922 1.27325 0.31394 1.07213L1.07213 0.31394C1.27325 0.112922 1.54596 0 1.83031 0C2.11467 0 2.38738 0.112922 2.5885 0.31394L11.6861 9.4115Z" fill="#828891"/>
</svg>
