<svg width="27" height="26" viewBox="0 0 27 26" fill="none" xmlns="http://www.w3.org/2000/svg">
<path d="M6.38036 17.2769C6.13243 17.5232 5.99316 17.8572 5.99316 18.2055C5.99316 18.5538 6.13243 18.8878 6.38036 19.1341L7.31545 20.0627C7.5635 20.3089 7.89985 20.4472 8.25055 20.4472C8.60125 20.4472 8.9376 20.3089 9.18565 20.0627L13.3932 15.8844L10.5879 13.0986L6.38036 17.2769ZM20.406 7.06311L19.4709 6.1345C19.2228 5.8883 18.8865 5.75 18.5358 5.75C18.1851 5.75 17.8487 5.8883 17.6007 6.1345L13.3932 10.3128L16.1985 13.0986L20.406 8.92031C20.6539 8.67399 20.7932 8.33998 20.7932 7.99171C20.7932 7.64344 20.6539 7.30943 20.406 7.06311Z" fill="#CF0E08"/>
<path d="M20.406 17.2769C20.6539 17.5232 20.7932 17.8572 20.7932 18.2055C20.7932 18.5538 20.6539 18.8878 20.406 19.1341L19.4709 20.0627C19.2228 20.3089 18.8865 20.4472 18.5358 20.4472C18.1851 20.4472 17.8487 20.3089 17.6007 20.0627L6.38036 8.92031C6.13243 8.67399 5.99316 8.33998 5.99316 7.99171C5.99316 7.64344 6.13243 7.30943 6.38036 7.06311L7.31545 6.1345C7.5635 5.8883 7.89985 5.75 8.25055 5.75C8.60125 5.75 8.9376 5.8883 9.18565 6.1345L20.406 17.2769Z" fill="#CF0E08"/>
</svg>
